<?xml version="1.0" encoding="UTF-8" standalone="no"?>
<!-- Created with Inkscape (http://www.inkscape.org/) -->

<svg
   xmlns:dc="http://purl.org/dc/elements/1.1/"
   xmlns:cc="http://creativecommons.org/ns#"
   xmlns:rdf="http://www.w3.org/1999/02/22-rdf-syntax-ns#"
   xmlns:svg="http://www.w3.org/2000/svg"
   xmlns="http://www.w3.org/2000/svg"
   xmlns:sodipodi="http://sodipodi.sourceforge.net/DTD/sodipodi-0.dtd"
   xmlns:inkscape="http://www.inkscape.org/namespaces/inkscape"
   width="35.190689mm"
   height="6.9200706mm"
   viewBox="0 0 124.69142 24.519935"
   id="svg2"
   version="1.1"
   inkscape:version="0.91 r13725"
   sodipodi:docname="New logo.svg">
  <title
     id="title4868">DemonSoft logo</title>
  <defs
     id="defs4" />
  <sodipodi:namedview
     id="base"
     pagecolor="#ffffff"
     bordercolor="#666666"
     borderopacity="1.0"
     inkscape:pageopacity="0.0"
     inkscape:pageshadow="2"
     inkscape:zoom="7.9195959"
     inkscape:cx="57.963955"
     inkscape:cy="3.9531104"
     inkscape:document-units="px"
     inkscape:current-layer="layer2"
     showgrid="false"
     showguides="false"
     inkscape:guide-bbox="true"
     guidetolerance="1"
     inkscape:window-width="1920"
     inkscape:window-height="1124"
     inkscape:window-x="0"
     inkscape:window-y="24"
     inkscape:window-maximized="1"
     fit-margin-top="0"
     fit-margin-left="0"
     fit-margin-right="0"
     fit-margin-bottom="0">
    <inkscape:grid
       type="xygrid"
       id="grid4974"
       originx="-289.68451"
       originy="-845.74348" />
  </sodipodi:namedview>
  <metadata
     id="metadata7">
    <rdf:RDF>
      <cc:Work
         rdf:about="">
        <dc:format>image/svg+xml</dc:format>
        <dc:type
           rdf:resource="http://purl.org/dc/dcmitype/StillImage" />
        <dc:title>DemonSoft logo</dc:title>
        <dc:creator>
          <cc:Agent>
            <dc:title>DemonSoft Ltd</dc:title>
          </cc:Agent>
        </dc:creator>
        <dc:rights>
          <cc:Agent>
            <dc:title>All rights reserved</dc:title>
          </cc:Agent>
        </dc:rights>
      </cc:Work>
    </rdf:RDF>
  </metadata>
  <g
     inkscape:groupmode="layer"
     id="layer2"
     inkscape:label="Text"
     style="display:inline;opacity:1"
     transform="translate(-289.68451,-182.09877)">
    <g
       style="font-style:normal;font-weight:normal;font-size:40px;line-height:125%;font-family:Sans;letter-spacing:0px;word-spacing:0px;fill:#000000;fill-opacity:1;stroke:none;stroke-width:1px;stroke-linecap:butt;stroke-linejoin:miter;stroke-opacity:1"
       id="text4199">
      <path
         d="m 289.68451,200.8036 0,-18.32885 6.1499,0 q 3.88062,0 6.04248,2.64526 2.16187,2.64526 2.16187,6.47217 0,3.88061 -2.10816,6.55273 -2.10815,2.65869 -5.34424,2.65869 l -6.90185,0 z m 2.29614,-1.94702 3.71948,0 q 2.95411,0 4.48487,-2.04101 1.53076,-2.04102 1.53076,-5.38452 0,-2.71241 -1.46362,-4.87427 -1.4502,-2.16187 -4.55201,-2.16187 l -3.71948,0 0,14.46167 z"
         style="font-style:normal;font-variant:normal;font-weight:normal;font-stretch:normal;font-size:27.5px;line-height:125%;font-family:'Franklin Gothic Book';-inkscape-font-specification:'Franklin Gothic Book, ';text-align:start;letter-spacing:-0.5px;writing-mode:lr-tb;text-anchor:start;fill:#000000;fill-opacity:1"
         id="path4871"
         inkscape:connector-curvature="0" />
      <path
         d="m 315.73114,196.76186 1.96045,0.40283 q -0.53711,1.73218 -2.09473,2.87353 -1.55761,1.12793 -3.66577,1.12793 -2.77954,0 -4.49829,-1.94702 -1.71875,-1.96045 -1.71875,-5.12939 0,-3.23609 1.78589,-5.22339 1.78589,-2.00073 4.48486,-2.00073 2.65869,0 4.27002,1.8396 1.62476,1.8396 1.66504,5.50537 l -9.85596,0 q 0,3.07495 1.28907,4.14917 1.28906,1.07422 2.72583,1.07422 2.59155,0 3.65234,-2.67212 z m -0.12085,-4.12232 q -0.0269,-1.14136 -0.37598,-2.02759 -0.34912,-0.88623 -1.18164,-1.5039 -0.83252,-0.63111 -2.00073,-0.63111 -1.57104,0 -2.67212,1.12793 -1.08764,1.12793 -1.22192,3.03467 l 7.45239,0 z"
         style="font-style:normal;font-variant:normal;font-weight:normal;font-stretch:normal;font-size:27.5px;line-height:125%;font-family:'Franklin Gothic Book';-inkscape-font-specification:'Franklin Gothic Book, ';text-align:start;letter-spacing:-0.5px;writing-mode:lr-tb;text-anchor:start;fill:#000000;fill-opacity:1"
         id="path4873"
         inkscape:connector-curvature="0" />
      <path
         d="m 338.78339,200.8036 -2.05445,0 0,-8.43261 q 0,-1.30249 -0.18799,-1.94702 -0.17456,-0.65796 -0.8728,-1.19507 -0.69824,-0.55054 -1.57104,-0.55054 -1.2085,0 -2.33643,1.1145 -1.1145,1.10108 -1.1145,3.37036 l 0,7.64038 -2.04102,0 0,-8.92944 q 0,-1.78589 -0.85937,-2.52441 -0.84595,-0.73853 -1.78589,-0.73853 -1.34277,0 -2.33643,1.15479 -0.99365,1.15478 -0.99365,2.92724 l 0,8.11035 -2.01416,0 0,-13.56201 1.81275,0 0,2.60498 q 1.51733,-2.98095 4.17602,-2.98095 1.46362,0 2.48413,0.95336 1.02051,0.95337 1.31592,2.29615 1.39648,-3.24951 4.28345,-3.24951 1.38305,0 2.41699,0.79223 1.04736,0.79224 1.3562,1.82617 0.32227,1.02051 0.32227,2.88697 l 0,8.43261 z"
         style="font-style:normal;font-variant:normal;font-weight:normal;font-stretch:normal;font-size:27.5px;line-height:125%;font-family:'Franklin Gothic Book';-inkscape-font-specification:'Franklin Gothic Book, ';text-align:start;letter-spacing:-0.5px;writing-mode:lr-tb;text-anchor:start;fill:#000000;fill-opacity:1"
         id="path4875"
         inkscape:connector-curvature="0" />
      <path
         d="m 347.37396,201.16615 q -2.79297,0 -4.36401,-2.06787 -1.55762,-2.06787 -1.55762,-5.12939 0,-3.23609 1.75903,-5.16968 1.75904,-1.93359 4.37745,-1.93359 2.80639,0 4.41772,2.04101 1.62476,2.02759 1.62476,5.07569 0,3.16894 -1.74561,5.1831 -1.7456,2.00073 -4.51172,2.00073 z m 0.16114,-1.73217 q 1.61132,0 2.69897,-1.32935 1.08765,-1.32935 1.08765,-4.13574 0,-2.81983 -1.14136,-4.08203 -1.14136,-1.27564 -2.67212,-1.27564 -1.57105,0 -2.65869,1.28906 -1.08765,1.27564 -1.08765,4.05518 0,2.94067 1.08765,4.21631 1.08764,1.26221 2.68555,1.26221 z"
         style="fill:#f00082;fill-opacity:1"
         id="path4877"
         inkscape:connector-curvature="0" />
      <path
         d="m 366.98871,200.8036 -1.97388,0 0,-8.7146 q 0,-1.87988 -0.81909,-2.64526 -0.81909,-0.76538 -1.9873,-0.76538 -1.61133,0 -2.71241,1.28906 -1.08764,1.28906 -1.08764,3.39722 l 0,7.43896 -2.10816,0 0,-13.56201 1.96045,0 0,2.49756 q 1.65161,-2.87353 4.28345,-2.87353 1.51733,0 2.57812,0.79223 1.07422,0.77881 1.46363,1.75904 0.40283,0.98022 0.40283,3.54492 l 0,7.84179 z"
         style="font-style:normal;font-variant:normal;font-weight:normal;font-stretch:normal;font-size:27.5px;line-height:125%;font-family:'Franklin Gothic Book';-inkscape-font-specification:'Franklin Gothic Book, ';text-align:start;letter-spacing:-0.5px;writing-mode:lr-tb;text-anchor:start;fill:#000000;fill-opacity:1"
         id="path4879"
         inkscape:connector-curvature="0" />
      <path
         d="m 368.9057,195.92934 2.06787,-0.46997 q 1.24878,3.74633 5.41138,3.74633 2.17529,0 3.27637,-0.91308 1.10107,-0.92652 1.10107,-2.47071 0,-1.16821 -0.84595,-1.87988 -0.83252,-0.71167 -1.93359,-0.98022 l -3.66577,-0.91309 q -1.42334,-0.36255 -2.33643,-0.8728 -0.89966,-0.52368 -1.53076,-1.5979 -0.6311,-1.07422 -0.6311,-2.45728 0,-2.29614 1.73217,-3.65234 1.73218,-1.36963 4.44458,-1.36963 4.99512,0 6.56617,4.52515 l -2.0813,0.61767 q -0.36255,-1.61133 -1.70532,-2.43042 -1.34278,-0.83252 -2.86011,-0.83252 -1.50391,0 -2.68555,0.79224 -1.16821,0.79224 -1.16821,2.24243 0,2.02759 2.98096,2.73926 l 3.42407,0.81909 q 4.6997,1.12793 4.6997,5.06226 0,2.37671 -1.77246,3.96118 -1.75903,1.57104 -4.96826,1.57104 -5.69336,0 -7.51953,-5.23681 z"
         style="font-style:normal;font-variant:normal;font-weight:normal;font-stretch:normal;font-size:27.5px;line-height:125%;font-family:'Franklin Gothic Book';-inkscape-font-specification:'Franklin Gothic Book, ';text-align:start;letter-spacing:-0.5px;writing-mode:lr-tb;text-anchor:start;fill:#000000;fill-opacity:1"
         id="path4881"
         inkscape:connector-curvature="0" />
      <path
         d="m 390.77631,201.16615 q -2.79297,0 -4.36402,-2.06787 -1.55761,-2.06787 -1.55761,-5.12939 0,-3.23609 1.75903,-5.16968 1.75903,-1.93359 4.37744,-1.93359 2.8064,0 4.41772,2.04101 1.62476,2.02759 1.62476,5.07569 0,3.16894 -1.74561,5.1831 -1.7456,2.00073 -4.51171,2.00073 z m 0.16113,-1.73217 q 1.61133,0 2.69897,-1.32935 1.08765,-1.32935 1.08765,-4.13574 0,-2.81983 -1.14136,-4.08203 -1.14135,-1.27564 -2.67212,-1.27564 -1.57104,0 -2.65869,1.28906 -1.08764,1.27564 -1.08764,4.05518 0,2.94067 1.08764,4.21631 1.08765,1.26221 2.68555,1.26221 z"
         style="font-style:normal;font-variant:normal;font-weight:normal;font-stretch:normal;font-size:27.5px;line-height:125%;font-family:'Franklin Gothic Book';-inkscape-font-specification:'Franklin Gothic Book, ';text-align:start;letter-spacing:-0.5px;writing-mode:lr-tb;text-anchor:start;fill:#000000;fill-opacity:1"
         id="path4883"
         inkscape:connector-curvature="0" />
      <path
         d="m 405.3288,187.24159 0,1.65161 -3.22266,0 0,11.9104 -2.10815,0 0,-11.9104 -2.30957,0 0,-1.65161 2.30957,0 q 0.0537,-3.26294 1.24878,-4.20288 1.20849,-0.93994 2.94067,-0.93994 0.84595,0 1.93359,0.18799 l 0,1.67847 q -0.68481,-0.17457 -1.30249,-0.17457 -1.38305,0 -2.05444,0.61768 -0.65796,0.60425 -0.65796,2.28272 l 0,0.55053 3.22266,0 z"
         style="font-style:normal;font-variant:normal;font-weight:normal;font-stretch:normal;font-size:27.5px;line-height:125%;font-family:'Franklin Gothic Book';-inkscape-font-specification:'Franklin Gothic Book, ';text-align:start;letter-spacing:-0.5px;writing-mode:lr-tb;text-anchor:start;fill:#000000;fill-opacity:1"
         id="path4885"
         inkscape:connector-curvature="0" />
      <path
         d="m 414.37592,199.35341 0,1.66504 q -1.11451,0.1477 -1.9336,0.1477 -3.93432,0 -3.93432,-4.10888 l 0,-8.16407 -2.40357,0 0,-1.65161 2.40357,0 0.094,-3.41064 1.96045,-0.18799 0,3.59863 3.03467,0 0,1.65161 -3.03467,0 0,8.51319 q 0,2.09472 2.17529,2.09472 0.7251,0 1.63819,-0.1477 z"
         style="font-style:normal;font-variant:normal;font-weight:normal;font-stretch:normal;font-size:27.5px;line-height:125%;font-family:'Franklin Gothic Book';-inkscape-font-specification:'Franklin Gothic Book, ';text-align:start;letter-spacing:-0.5px;writing-mode:lr-tb;text-anchor:start;fill:#000000;fill-opacity:1"
         id="path4887"
         inkscape:connector-curvature="0" />
    </g>
  </g>
  <g
     inkscape:groupmode="layer"
     id="layer4"
     inkscape:label="Tail"
     style="display:inline;opacity:0.97000002"
     transform="translate(-289.68451,-182.09877)">
    <g
       id="g4761">
      <path
         style="color:#000000;font-style:normal;font-variant:normal;font-weight:normal;font-stretch:normal;font-size:medium;line-height:normal;font-family:sans-serif;text-indent:0;text-align:start;text-decoration:none;text-decoration-line:none;text-decoration-style:solid;text-decoration-color:#000000;letter-spacing:normal;word-spacing:normal;text-transform:none;direction:ltr;block-progression:tb;writing-mode:lr-tb;baseline-shift:baseline;text-anchor:start;white-space:normal;clip-rule:nonzero;display:inline;overflow:visible;visibility:visible;opacity:1;isolation:auto;mix-blend-mode:normal;color-interpolation:sRGB;color-interpolation-filters:linearRGB;solid-color:#000000;solid-opacity:1;fill:#f00082;fill-opacity:1;fill-rule:evenodd;stroke:none;stroke-width:0.96499997;stroke-linecap:butt;stroke-linejoin:miter;stroke-miterlimit:0;stroke-dasharray:none;stroke-dashoffset:0;stroke-opacity:1;color-rendering:auto;image-rendering:auto;shape-rendering:auto;text-rendering:auto;enable-background:accumulate"
         d="m 346.98828,200.37305 0,5.45703 0.96484,0 0,-5.45703 -0.96484,0 z"
         id="path4981"
         inkscape:connector-curvature="0" />
      <path
         style="fill:#f00082;fill-opacity:1;fill-rule:evenodd;stroke:#f00082;stroke-width:0.19299997pt;stroke-opacity:1"
         d="m 347.47059,206.43047 -0.965,-1.15606 1.93,0 z"
         id="path4767"
         inkscape:connector-curvature="0"
         sodipodi:nodetypes="cccc" />
    </g>
  </g>
  <g
     inkscape:groupmode="layer"
     id="layer3"
     inkscape:label="Horns"
     style="display:inline"
     transform="translate(-289.68451,-182.09877)">
    <path
       style="opacity:1;fill:#f00082;fill-opacity:1;fill-rule:evenodd;stroke:#f00082;stroke-width:0.2;stroke-linecap:butt;stroke-linejoin:miter;stroke-miterlimit:4;stroke-dasharray:none;stroke-opacity:1"
       d="m 344.69121,187.60848 c -0.33451,-0.30474 -0.50133,-0.80629 -0.50833,-1.25874 -0.0106,-0.68813 0.71353,-1.93743 0.71353,-1.93743 0,0 -0.29986,1.4371 0.11837,1.9256 0.56793,0.66335 1.68561,0.56258 2.55887,0.56167 0.8508,-8.9e-4 1.93904,0.0943 2.49191,-0.55242 0.42259,-0.49428 0.12103,-1.94715 0.12103,-1.94715 0,0 0.7257,1.26152 0.71623,1.9557 -0.006,0.44933 -0.16774,0.94801 -0.49798,1.25278 -0.72231,0.6666 -1.8357,0.8626 -2.81859,0.86625 -1.00728,0.004 -2.15042,-0.1879 -2.89504,-0.86626 z"
       id="path4952"
       inkscape:connector-curvature="0"
       sodipodi:nodetypes="aacaaacaaaa" />
  </g>
</svg>
